<mxfile host="Electron" modified="2024-10-04T01:57:18.544Z" agent="Mozilla/5.0 (Windows NT 10.0; Win64; x64) AppleWebKit/537.36 (KHTML, like Gecko) draw.io/24.6.4 Chrome/124.0.6367.207 Electron/30.0.6 Safari/537.36" etag="LWqFBqm7iq7Z_GTHS2Ip" version="24.6.4" type="device">
  <diagram name="Page-1" id="aCrqEquAQAozVI4130Tf">
    <mxGraphModel dx="1034" dy="528" grid="1" gridSize="10" guides="1" tooltips="1" connect="1" arrows="1" fold="1" page="1" pageScale="1" pageWidth="827" pageHeight="1169" math="0" shadow="0">
      <root>
        <mxCell id="0" />
        <mxCell id="1" parent="0" />
        <mxCell id="x2lYqwdw45UwaOoRsaqH-1" value="" style="strokeWidth=1;shadow=0;dashed=0;align=center;html=1;shape=mxgraph.mockup.containers.browserWindow;rSize=0;strokeColor=#666666;strokeColor2=#008cff;strokeColor3=#c4c4c4;mainText=,;recursiveResize=0;" vertex="1" parent="1">
          <mxGeometry x="139" y="100" width="550" height="510" as="geometry" />
        </mxCell>
        <mxCell id="x2lYqwdw45UwaOoRsaqH-2" value="Page 1" style="strokeWidth=1;shadow=0;dashed=0;align=center;html=1;shape=mxgraph.mockup.containers.anchor;fontSize=17;fontColor=#666666;align=left;whiteSpace=wrap;" vertex="1" parent="x2lYqwdw45UwaOoRsaqH-1">
          <mxGeometry x="60" y="12" width="110" height="26" as="geometry" />
        </mxCell>
        <mxCell id="x2lYqwdw45UwaOoRsaqH-3" value="https://www.pos.html" style="strokeWidth=1;shadow=0;dashed=0;align=center;html=1;shape=mxgraph.mockup.containers.anchor;rSize=0;fontSize=17;fontColor=#666666;align=left;" vertex="1" parent="x2lYqwdw45UwaOoRsaqH-1">
          <mxGeometry x="130" y="60" width="250" height="26" as="geometry" />
        </mxCell>
        <mxCell id="x2lYqwdw45UwaOoRsaqH-4" value="" style="rounded=1;whiteSpace=wrap;html=1;absoluteArcSize=1;arcSize=14;strokeWidth=2;" vertex="1" parent="x2lYqwdw45UwaOoRsaqH-1">
          <mxGeometry x="30" y="180" width="150" height="150" as="geometry" />
        </mxCell>
        <mxCell id="x2lYqwdw45UwaOoRsaqH-5" value="" style="rounded=1;whiteSpace=wrap;html=1;absoluteArcSize=1;arcSize=14;strokeWidth=2;" vertex="1" parent="x2lYqwdw45UwaOoRsaqH-1">
          <mxGeometry x="200" y="180" width="150" height="150" as="geometry" />
        </mxCell>
        <mxCell id="x2lYqwdw45UwaOoRsaqH-6" value="" style="rounded=1;whiteSpace=wrap;html=1;absoluteArcSize=1;arcSize=14;strokeWidth=2;" vertex="1" parent="x2lYqwdw45UwaOoRsaqH-1">
          <mxGeometry x="370" y="180" width="150" height="150" as="geometry" />
        </mxCell>
        <mxCell id="x2lYqwdw45UwaOoRsaqH-7" value="" style="rounded=1;whiteSpace=wrap;html=1;absoluteArcSize=1;arcSize=14;strokeWidth=2;" vertex="1" parent="x2lYqwdw45UwaOoRsaqH-1">
          <mxGeometry x="30" y="350" width="490" height="150" as="geometry" />
        </mxCell>
        <mxCell id="x2lYqwdw45UwaOoRsaqH-8" value="" style="verticalLabelPosition=bottom;verticalAlign=top;html=1;shape=mxgraph.basic.rect;fillColor2=none;strokeWidth=1;size=20;indent=5;" vertex="1" parent="x2lYqwdw45UwaOoRsaqH-1">
          <mxGeometry y="110" width="550" height="50" as="geometry" />
        </mxCell>
        <mxCell id="x2lYqwdw45UwaOoRsaqH-11" value="" style="rounded=0;whiteSpace=wrap;html=1;" vertex="1" parent="x2lYqwdw45UwaOoRsaqH-1">
          <mxGeometry x="299" y="125" width="120" height="20" as="geometry" />
        </mxCell>
        <mxCell id="x2lYqwdw45UwaOoRsaqH-12" value="Search" style="html=1;shadow=0;dashed=0;shape=mxgraph.bootstrap.rrect;rSize=5;strokeColor=#33A64C;strokeWidth=1;fillColor=none;fontColor=#33A64C;whiteSpace=wrap;align=center;verticalAlign=middle;spacingLeft=0;fontStyle=0;fontSize=16;spacing=5;" vertex="1" parent="x2lYqwdw45UwaOoRsaqH-1">
          <mxGeometry x="427" y="122" width="56.25" height="25" as="geometry" />
        </mxCell>
        <mxCell id="x2lYqwdw45UwaOoRsaqH-13" value="" style="strokeWidth=2;html=1;shape=mxgraph.flowchart.start_2;whiteSpace=wrap;" vertex="1" parent="x2lYqwdw45UwaOoRsaqH-1">
          <mxGeometry x="489" y="119.5" width="31" height="31" as="geometry" />
        </mxCell>
        <mxCell id="x2lYqwdw45UwaOoRsaqH-14" value="Info" style="html=1;shadow=0;dashed=0;shape=mxgraph.bootstrap.rrect;rSize=5;strokeColor=#1CA5B8;strokeWidth=1;fillColor=none;fontColor=#1CA5B8;whiteSpace=wrap;align=center;verticalAlign=middle;spacingLeft=0;fontStyle=0;fontSize=16;spacing=5;" vertex="1" parent="x2lYqwdw45UwaOoRsaqH-1">
          <mxGeometry x="80" y="300" width="50" height="20" as="geometry" />
        </mxCell>
        <mxCell id="x2lYqwdw45UwaOoRsaqH-15" value="Info" style="html=1;shadow=0;dashed=0;shape=mxgraph.bootstrap.rrect;rSize=5;strokeColor=#1CA5B8;strokeWidth=1;fillColor=none;fontColor=#1CA5B8;whiteSpace=wrap;align=center;verticalAlign=middle;spacingLeft=0;fontStyle=0;fontSize=16;spacing=5;" vertex="1" parent="x2lYqwdw45UwaOoRsaqH-1">
          <mxGeometry x="250" y="300" width="50" height="20" as="geometry" />
        </mxCell>
        <mxCell id="x2lYqwdw45UwaOoRsaqH-16" value="Info" style="html=1;shadow=0;dashed=0;shape=mxgraph.bootstrap.rrect;rSize=5;strokeColor=#1CA5B8;strokeWidth=1;fillColor=none;fontColor=#1CA5B8;whiteSpace=wrap;align=center;verticalAlign=middle;spacingLeft=0;fontStyle=0;fontSize=16;spacing=5;" vertex="1" parent="x2lYqwdw45UwaOoRsaqH-1">
          <mxGeometry x="420" y="300" width="50" height="20" as="geometry" />
        </mxCell>
        <mxCell id="x2lYqwdw45UwaOoRsaqH-18" value="" style="verticalLabelPosition=bottom;shadow=0;dashed=0;align=center;html=1;verticalAlign=top;strokeWidth=1;shape=mxgraph.mockup.graphics.simpleIcon;strokeColor=#999999;" vertex="1" parent="x2lYqwdw45UwaOoRsaqH-1">
          <mxGeometry x="57.25" y="190" width="95.5" height="95.5" as="geometry" />
        </mxCell>
        <mxCell id="x2lYqwdw45UwaOoRsaqH-19" value="" style="verticalLabelPosition=bottom;shadow=0;dashed=0;align=center;html=1;verticalAlign=top;strokeWidth=1;shape=mxgraph.mockup.graphics.simpleIcon;strokeColor=#999999;" vertex="1" parent="x2lYqwdw45UwaOoRsaqH-1">
          <mxGeometry x="227.25" y="190" width="95.5" height="95.5" as="geometry" />
        </mxCell>
        <mxCell id="x2lYqwdw45UwaOoRsaqH-20" value="" style="verticalLabelPosition=bottom;shadow=0;dashed=0;align=center;html=1;verticalAlign=top;strokeWidth=1;shape=mxgraph.mockup.graphics.simpleIcon;strokeColor=#999999;" vertex="1" parent="x2lYqwdw45UwaOoRsaqH-1">
          <mxGeometry x="397.25" y="190" width="95.5" height="95.5" as="geometry" />
        </mxCell>
        <mxCell id="x2lYqwdw45UwaOoRsaqH-38" value="" style="verticalLabelPosition=bottom;shadow=0;dashed=0;align=center;html=1;verticalAlign=top;strokeWidth=1;shape=mxgraph.mockup.graphics.simpleIcon;strokeColor=#999999;" vertex="1" parent="x2lYqwdw45UwaOoRsaqH-1">
          <mxGeometry x="62" y="377.25" width="95.5" height="95.5" as="geometry" />
        </mxCell>
        <mxCell id="x2lYqwdw45UwaOoRsaqH-39" value="" style="verticalLabelPosition=bottom;shadow=0;dashed=0;align=center;html=1;verticalAlign=top;strokeWidth=1;shape=mxgraph.mockup.graphics.simpleIcon;strokeColor=#999999;" vertex="1" parent="x2lYqwdw45UwaOoRsaqH-1">
          <mxGeometry x="172" y="377.25" width="95.5" height="95.5" as="geometry" />
        </mxCell>
        <mxCell id="x2lYqwdw45UwaOoRsaqH-40" value="" style="verticalLabelPosition=bottom;shadow=0;dashed=0;align=center;html=1;verticalAlign=top;strokeWidth=1;shape=mxgraph.mockup.graphics.simpleIcon;strokeColor=#999999;" vertex="1" parent="x2lYqwdw45UwaOoRsaqH-1">
          <mxGeometry x="282" y="377.25" width="95.5" height="95.5" as="geometry" />
        </mxCell>
        <mxCell id="x2lYqwdw45UwaOoRsaqH-41" value="" style="verticalLabelPosition=bottom;shadow=0;dashed=0;align=center;html=1;verticalAlign=top;strokeWidth=1;shape=mxgraph.mockup.graphics.simpleIcon;strokeColor=#999999;" vertex="1" parent="x2lYqwdw45UwaOoRsaqH-1">
          <mxGeometry x="392" y="377.25" width="95.5" height="95.5" as="geometry" />
        </mxCell>
        <mxCell id="x2lYqwdw45UwaOoRsaqH-10" value="&lt;font style=&quot;font-size: 14px;&quot;&gt;Text&lt;/font&gt;" style="text;strokeColor=none;fillColor=none;html=1;fontSize=24;fontStyle=1;verticalAlign=middle;align=center;" vertex="1" parent="1">
          <mxGeometry x="131" y="210" width="100" height="40" as="geometry" />
        </mxCell>
      </root>
    </mxGraphModel>
  </diagram>
</mxfile>
